Coordinates
version=1
nRows=4
nColumns=40
inDegrees=yes

Units are S.I. units (second, meters, Newtons, ...)
If the header above contains a line with 'inDegrees', this indicates whether rotational values are in degrees (yes) or radians (no).

endheader
time	pelvis_tilt	pelvis_list	pelvis_rotation	pelvis_tx	pelvis_ty	pelvis_tz	hip_flexion_r	hip_adduction_r	hip_rotation_r	knee_angle_r	knee_angle_r_beta	ankle_angle_r	subtalar_angle_r	mtp_angle_r	hip_flexion_l	hip_adduction_l	hip_rotation_l	knee_angle_l	knee_angle_l_beta	ankle_angle_l	subtalar_angle_l	mtp_angle_l	lumbar_extension	lumbar_bending	lumbar_rotation	arm_flex_r	arm_add_r	arm_rot_r	elbow_flex_r	pro_sup_r	wrist_flex_r	wrist_dev_r	arm_flex_l	arm_add_l	arm_rot_l	elbow_flex_l	pro_sup_l	wrist_flex_l	wrist_dev_l
      7.55499999999999971578	      5.31701024497265972713	     -2.24690088967833068168	   -172.04855814679612535656	      0.32272818939460634624	      0.73525170201730438713	     -0.60933182432913968185	     57.28660827352465645390	    -14.17491548299628334462	      2.97032188488377935087	     72.34402377049576671197	      1.26264140893619369876	     30.07070620909886216054	      0.00000000000000000000	      0.00000000000000000000	     61.02900690431210506404	     -6.68838045930010149931	     -0.35128217371719444584	     74.47928123986612547469	      1.29990868215450849910	     18.89085327246901258036	      0.00000000000000000000	      0.00000000000000000000	    -65.01156272871743624364	      5.70231674753765194197	     -5.08127973878173122557	     60.13147360975597877086	     -1.31381953758534453236	     15.57799603977513847042	      4.39753862372520387680	     13.31263790021395720942	      0.00000000000000000000	      0.00000000000000000000	     68.13864418762896946191	     -9.71691836980039091998	     85.49074820102129024235	      4.51128515294464005336	     85.62356071233712384583	      0.00000000000000000000	      0.00000000000000000000
      7.55999999999999960920	      5.31304767257448418150	     -2.36566727466312798356	   -172.38543936159823033449	      0.32245699184259690728	      0.73670686157984588416	     -0.61010464920576934489	     57.17133091543707479332	    -13.89834481236949415006	      3.26167117043499121820	     72.06102822442032618255	      1.25770220488869810538	     30.02185226929487882330	      0.00000000000000000000	      0.00000000000000000000	     60.71850822788229606886	     -7.07397427224505115362	     -0.85543234244600918625	     74.17086771683366919206	      1.29452585071991665977	     18.85333631218334815571	      0.00000000000000000000	      0.00000000000000000000	    -65.08561475683700336958	      5.31636497623069459451	     -5.01410868611444549003	     60.03514048891851473400	     -1.38488682697723608506	     15.83952518449255997268	      4.30493484385062519237	     14.68131540560591830058	      0.00000000000000000000	      0.00000000000000000000	     68.24534571572515062599	     -9.72588589472280773407	     85.15980256496619915652	      4.60954543626151469482	     85.89621525948557234642	      0.00000000000000000000	      0.00000000000000000000
      7.56500000000000039080	      5.47198822446455501733	     -2.27804559550244212218	   -172.05754051720938946346	      0.32235966141085720116	      0.73782107050422396366	     -0.60960647237351317518	     57.10404079587166137344	    -14.19493536192106653004	      2.85250261492185552825	     71.76150759558048264353	      1.25247458373779885221	     29.77747287490328886861	      0.00000000000000000000	      0.00000000000000000000	     60.78239365305226726832	     -6.78224789471528488605	     -0.60783553695502390291	     73.84491816809710940106	      1.28883695789907415374	     18.53264716147693036419	      0.00000000000000000000	      0.00000000000000000000	    -64.93327837398578594730	      5.63223085226725661556	     -5.07589025024356033100	     60.05861150227016054259	     -1.35373952708397737865	     15.53919813773354441366	      4.22596825512726947949	     14.83855198086296667270	      0.00000000000000000000	      0.00000000000000000000	     68.15434593169267429857	     -9.68519313789311198093	     85.48342032944405843864	      4.48045374243517002810	     85.56141636431833319421	      0.00000000000000000000	      0.00000000000000000000
      7.57000000000000028422	      5.54458812289530555972	     -2.30679070233999539141	   -172.15689612023339805091	      0.32215475069957555387	      0.73921316773669631939	     -0.60994543091529618284	     57.01422397458944857362	    -14.11369557144580610952	      2.87911510165231598890	     71.44024208631654460078	      1.24686744282804684580	     29.57346659287384227355	      0.00000000000000000000	      0.00000000000000000000	     60.62161399785872362145	     -6.92925298739972372886	     -0.83148735676544816009	     73.54133567489476774881	      1.28353844384127979694	     18.42476978613056104450	      0.00000000000000000000	      0.00000000000000000000	    -64.91166737365603012222	      5.50254511881829078135	     -5.07227070621966014130	     60.15487971434297520545	     -1.21594951820504793005	     15.11718949644734699689	      4.69240435353423546161	     11.44957382619531394141	      0.00000000000000000000	      0.00000000000000000000	     68.17127018155353823659	     -9.71756951851781813900	     85.42067046900632476536	      4.49897103391758790281	     85.62884296598917899246	      0.00000000000000000000	      0.00000000000000000000
